{"title":"Can't Buy Me Love (1987) 720p AC3 (5.1) HDTV no logos","uid":10538903,"size":2423167540,"categoryP":"video","categoryS":"hd___movies","magnet":"?xt=urn:btih:327ba947d0f7ddd56a9f6e709231fc5253ca8be1&amp;dn=Can%27t+Buy+Me+Love+%281987%29+720p+AC3+%285.1%29+HDTV+no+logos&amp;tr=udp%3A%2F%2Ftracker.openbittorrent.com%3A80&amp;tr=udp%3A%2F%2Fopen.demonii.com%3A1337&amp;tr=udp%3A%2F%2Ftracker.coppersurfer.tk%3A6969&amp;tr=udp%3A%2F%2Fexodus.desync.com%3A6969","seeders":3,"leechers":1,"uploader":"nabsltd","files":2,"time":1405197378,"description":"This is my own rip.\n\nGeneral\nUnique ID                                : 230844843910357866617651042804412375043 (0xADAB1988860DE16A84DF45EFB0D6E003)\nFormat                                   : Matroska\nFormat version                           : Version 4 / Version 2\nFile size                                : 2.23 GiB\nDuration                                 : 1h 34mn\nOverall bit rate mode                    : Variable\nOverall bit rate                         : 3 393 Kbps\nEncoded date                             : UTC 2014-07-12 17:28:35\nWriting application                      : mkvmerge v7.0.0 ('Where We Going') 64bit built on Jun  9 2014 15:16:27\nWriting library                          : libebml v1.3.0 + libmatroska v1.4.1\nDURATION                                 : 01:34:07.680000000\nNUMBER_OF_FRAMES                         : 176490\nNUMBER_OF_BYTES                          : 271088640\n_STATISTICS_WRITING_APP                  : mkvmerge v7.0.0 ('Where We Going') 64bit built on Jun  9 2014 15:16:27\n_STATISTICS_WRITING_DATE_UTC             : 2014-07-12 17:28:35\n_STATISTICS_TAGS                         : BPS DURATION NUMBER_OF_FRAMES NUMBER_OF_BYTES\n\nVideo\nID                                       : 1\nFormat                                   : AVC\nFormat/Info                              : Advanced Video Codec\nFormat profile                           : &lt;a class=&quot;__cf_email__&quot; href=&quot;/cdn-cgi/l/email-protection&quot; data-cfemail=&quot;6129080609212d554f50&quot;&gt;[email&amp;#160;protected]&lt;/a&gt;&lt;script cf-hash='f9e31' type=&quot;text/javascript&quot;&gt;\n/* &lt;![CDATA[ */!function(){try{var t=&quot;currentScript&quot;in document?document.currentScript:function(){for(var t=document.getElementsByTagName(&quot;script&quot;),e=t.length;e--;)if(t[e].getAttribute(&quot;cf-hash&quot;))return t[e]}();if(t&amp;&amp;t.previousSibling){var e,r,n,i,c=t.previousSibling,a=c.getAttribute(&quot;data-cfemail&quot;);if(a){for(e=&quot;&quot;,r=parseInt(a.substr(0,2),16),n=2;a.length-n;n+=2)i=parseInt(a.substr(n,2),16)^r,e+=String.fromCharCode(i);e=document.createTextNode(e),c.parentNode.replaceChild(e,c)}}}catch(u){}}();/* ]]&gt; */&lt;/script&gt;\nFormat settings, CABAC                   : Yes\nFormat settings, ReFrames                : 7 frames\nCodec ID                                 : V_MPEG4/ISO/AVC\nDuration                                 : 1h 34mn\nBit rate mode                            : Variable\nBit rate                                 : 2 942 Kbps\nMaximum bit rate                         : 11.8 Mbps\nWidth                                    : 1 280 pixels\nHeight                                   : 692 pixels\nDisplay aspect ratio                     : 1.85:1\nFrame rate mode                          : Constant\nFrame rate                               : 23.976 fps\nColor space                              : YUV\nChroma subsampling                       : 4:2:0\nBit depth                                : 8 bits\nScan type                                : Progressive\nBits/(Pixel*Frame)                       : 0.139\nStream size                              : 1.93 GiB (87%)\nWriting library                          : x264 core 135 r2345 f0c1c53\nLanguage                                 : English\nDefault                                  : Yes\nForced                                   : No\nColor primaries                          : BT.709\nTransfer characteristics                 : BT.709\nMatrix coefficients                      : BT.709\n\nAudio\nID                                       : 2\nFormat                                   : AC-3\nFormat/Info                              : Audio Coding 3\nMode extension                           : CM (complete main)\nFormat settings, Endianness              : Big\nCodec ID                                 : A_AC3\nDuration                                 : 1h 34mn\nBit rate mode                            : Constant\nBit rate                                 : 384 Kbps\nChannel(s)                               : 6 channels\nChannel positions                        : Front: L C R, Side: L R, LFE\nSampling rate                            : 48.0 KHz\nBit depth                                : 16 bits\nCompression mode                         : Lossy\nStream size                              : 259 MiB (11%)\nLanguage                                 : English\nDefault                                  : Yes\nForced                                   : No\n\nMenu\n00:00:00.000                             : en:Opening Titles/Senior Year\n00:04:39.154                             : en:The Cool Clique\n00:08:54.951                             : en:Back-to-School Activities\n00:14:15.104                             : en:A Thousand-Dollar Deal\n00:20:32.189                             : en:Cindy and Ronald?\n00:25:41.206                             : en:From Totally Geek to Totally Chic\n00:30:35.625                             : en:Car Wash Poetry\n00:33:39.768                             : en:The Last Official Date\n00:39:23.736                             : en:Breakup Performance\n00:43:02.580                             : en:Mr. Popular\n00:46:44.510                             : en:School Dance\n00:54:06.994                             : en:Ronald's New World\n00:57:21.980                             : en:Halloween Prank\n01:05:59.853                             : en:New Year's Party\n01:14:14.450                             : en:Banished\n01:22:13.470                             : en:Be Yourself\n01:30:19.789                             : en:End Credits\n","torrent":{"xt":"urn:btih:327ba947d0f7ddd56a9f6e709231fc5253ca8be1","amp;dn":"Can%27t+Buy+Me+Love+%281987%29+720p+AC3+%285.1%29+HDTV+no+logos","amp;tr":["udp%3A%2F%2Ftracker.openbittorrent.com%3A80","udp%3A%2F%2Fopen.demonii.com%3A1337","udp%3A%2F%2Ftracker.coppersurfer.tk%3A6969","udp%3A%2F%2Fexodus.desync.com%3A6969"],"infoHash":"327ba947d0f7ddd56a9f6e709231fc5253ca8be1","infoHashBuffer":{"type":"Buffer","data":[50,123,169,71,208,247,221,213,106,159,110,112,146,49,252,82,83,202,139,225]},"announce":[],"urlList":[]}}